<svg width="auto" height="auto" viewBox="0 0 22 20" fill="none" xmlns="http://www.w3.org/2000/svg">
	<g opacity="0.4">
		<path d="M1.1788 8.61573C2.87975 6.43131 5.29567 4.82807 8.07551 4.1582L8.28454 6.03948C6.02203 6.63924 4.05725 7.97097 2.6582 9.76769C2.34009 10.1762 1.75104 10.2495 1.34252 9.93141C0.933995 9.6133 0.860697 9.02425 1.1788 8.61573Z" fill="#FF9900"/>
		<path d="M13.9245 4.15832L13.7155 6.03961C15.9778 6.63944 17.9424 7.9711 19.3413 9.76769C19.6594 10.1762 20.2485 10.2495 20.657 9.93141C21.0655 9.6133 21.1388 9.02425 20.8207 8.61573C19.1199 6.43144 16.7041 4.82826 13.9245 4.15832Z" fill="#FF9900"/>
		<path d="M4.78435 13.1333C5.73948 11.777 7.12925 10.7461 8.75175 10.2441L8.9639 12.1535C7.88968 12.5624 6.97015 13.2859 6.31737 14.2129C6.01926 14.6362 5.43441 14.7377 5.01108 14.4396C4.58775 14.1415 4.48623 13.5566 4.78435 13.1333Z" fill="#FF9900"/>
		<path d="M13.2483 10.2444L13.0361 12.1538C14.11 12.5628 15.0292 13.2861 15.6819 14.2129C15.98 14.6362 16.5648 14.7377 16.9882 14.4396C17.4115 14.1415 17.513 13.5566 17.2149 13.1333C16.2599 11.7772 14.8704 10.7465 13.2483 10.2444Z" fill="#FF9900"/>
	</g>
	<path d="M11.0004 1.625C12.0397 1.625 12.8483 2.5284 12.7335 3.56137L11.6215 13.569C11.5864 13.8855 11.3188 14.125 11.0004 14.125C10.6819 14.125 10.4143 13.8855 10.3792 13.569L9.26722 3.56137C9.15245 2.5284 9.96103 1.625 11.0004 1.625Z" fill="#FF9900"/>
	<path d="M11 19C11.8284 19 12.5 18.3284 12.5 17.5C12.5 16.6716 11.8284 16 11 16C10.1716 16 9.5 16.6716 9.5 17.5C9.5 18.3284 10.1716 19 11 19Z" fill="#FF9900"/>
</svg>